<svg width="340" height="55" viewBox="0 0 340 55" fill="none" xmlns="http://www.w3.org/2000/svg">
<path d="M42.5045 4.864C42.6325 5.58933 42.7178 6.10133 42.7605 6.4C42.8458 6.656 42.8885 7.01866 42.8885 7.488C42.8885 8.896 42.5685 10.2187 41.9285 11.456C41.3312 12.6507 40.4992 13.504 39.4325 14.016C38.5792 12.864 37.5338 11.8827 36.2965 11.072C35.0592 10.2187 33.6938 9.536 32.2005 9.024C30.7498 8.46933 29.2352 8.064 27.6565 7.808C26.0778 7.552 24.5418 7.424 23.0485 7.424C21.5552 7.424 20.1472 7.552 18.8245 7.808C17.5445 8.02133 16.3925 8.34133 15.3685 8.768C14.3872 9.152 13.5978 9.64266 13.0005 10.24C12.4458 10.8373 12.1685 11.52 12.1685 12.288C12.2965 13.2267 12.8725 14.1867 13.8965 15.168C14.9205 16.1067 16.1792 17.0453 17.6725 17.984C19.1658 18.88 20.8085 19.776 22.6005 20.672C24.4352 21.568 26.2272 22.4213 27.9765 23.232C30.1525 24.256 32.0298 25.216 33.6085 26.112C35.1872 26.9653 36.4885 27.9253 37.5125 28.992C38.5365 30.016 39.3045 31.1893 39.8165 32.512C40.3285 33.8347 40.5845 35.4347 40.5845 37.312C40.5845 39.488 40.2218 41.536 39.4965 43.456C38.7712 45.3333 37.7045 46.976 36.2965 48.384C34.9312 49.792 33.2672 50.88 31.3045 51.648C29.3418 52.4587 27.1445 52.864 24.7125 52.864C22.3232 52.864 19.7418 52.5013 16.9685 51.776C14.1952 51.0507 11.5925 50.048 9.1605 48.768C6.77117 47.5307 4.76583 46.1013 3.1445 44.48C1.56583 42.816 0.7765 41.0667 0.7765 39.232C0.7765 38.3787 1.01117 37.2907 1.4805 35.968C1.9925 34.6453 2.8885 33.2587 4.1685 31.808C4.2965 33.088 4.97917 34.6027 6.2165 36.352C7.4965 38.1013 9.39517 39.7227 11.9125 41.216C14.2592 42.5813 16.6698 43.584 19.1445 44.224C21.6618 44.8213 24.0085 45.12 26.1845 45.12C28.5738 45.12 30.5152 44.8213 32.0085 44.224C33.5018 43.6267 34.6752 42.9227 35.5285 42.112C36.3818 41.2587 36.9792 40.4053 37.3205 39.552C37.6618 38.6987 37.8538 38.016 37.8965 37.504C37.8538 36.6507 37.4485 35.84 36.6805 35.072C35.9552 34.2613 34.9525 33.4933 33.6725 32.768C32.4352 32 30.9845 31.232 29.3205 30.464C27.6565 29.696 25.9285 28.928 24.1365 28.16C21.4485 26.9653 19.1232 25.856 17.1605 24.832C15.2405 23.7653 13.6405 22.6987 12.3605 21.632C11.1232 20.5227 10.2058 19.3707 9.6085 18.176C9.05383 16.9813 8.7765 15.616 8.7765 14.08C8.7765 11.6907 9.50183 9.42933 10.9525 7.296C12.4032 5.16266 14.4938 3.54133 17.2245 2.432C18.5898 1.83467 20.0405 1.408 21.5765 1.152C23.1552 0.895997 24.6912 0.767998 26.1845 0.767998C29.0005 0.767998 31.7525 1.152 34.4405 1.92C37.1285 2.688 39.8165 3.66933 42.5045 4.864ZM68.37 21.504C68.1993 24.1493 67.73 26.432 66.962 28.352C66.194 30.2293 65.0847 31.8933 63.634 33.344C62.226 34.752 60.498 36.032 58.45 37.184C56.402 38.336 54.0127 39.4453 51.282 40.512C51.282 40.768 51.2607 41.0453 51.218 41.344C51.218 41.6 51.218 41.8773 51.218 42.176C51.218 42.7307 51.2607 43.3067 51.346 43.904C51.4313 44.5013 51.5807 45.056 51.794 45.568C52.0073 46.08 52.306 46.5067 52.69 46.848C53.074 47.1467 53.5647 47.296 54.162 47.296C55.314 47.296 56.4447 47.04 57.554 46.528C58.6633 46.016 59.7087 45.3973 60.69 44.672C61.714 43.904 62.6527 43.0933 63.506 42.24C64.402 41.344 65.1913 40.5333 65.874 39.808C66.3007 40.192 66.6633 40.5547 66.962 40.896C65.042 43.456 62.93 45.5893 60.626 47.296C58.3647 48.96 56.21 50.0267 54.162 50.496C51.218 50.1547 48.914 49.088 47.25 47.296C45.6287 45.4613 44.818 43.264 44.818 40.704C44.818 38.9547 45.0527 37.184 45.522 35.392C46.034 33.5573 46.7167 31.808 47.57 30.144C48.466 28.4373 49.49 26.8373 50.642 25.344C51.8367 23.8507 53.0953 22.5493 54.418 21.44C55.7833 20.3307 57.17 19.456 58.578 18.816C60.0287 18.176 61.458 17.856 62.866 17.856C64.8287 18.112 66.6633 19.328 68.37 21.504ZM63.954 23.616C62.802 23.7867 61.6073 24.256 60.37 25.024C59.1327 25.792 57.9593 26.816 56.85 28.096C55.7833 29.376 54.802 30.8693 53.906 32.576C53.01 34.2827 52.306 36.1173 51.794 38.08C55.2073 36.3733 58.0447 34.2827 60.306 31.808C62.5673 29.2907 63.7833 26.56 63.954 23.616ZM69.797 46.72C70.0103 45.4827 70.373 43.8613 70.885 41.856C71.4397 39.808 72.0797 37.6533 72.805 35.392C73.5303 33.088 74.2983 30.784 75.109 28.48C75.9197 26.176 76.709 24.1067 77.477 22.272C78.0317 20.9493 78.5223 19.9253 78.949 19.2C79.3757 18.432 79.845 17.792 80.357 17.28C80.9543 17.3653 81.573 17.5147 82.213 17.728C82.853 17.9413 83.4717 18.1973 84.069 18.496C84.6663 18.7947 85.1997 19.1147 85.669 19.456C86.1383 19.7547 86.501 20.0533 86.757 20.352C85.605 21.7173 84.581 23.2747 83.685 25.024C82.8317 26.7733 81.957 29.0133 81.061 31.744C83.365 29.696 85.3917 27.7333 87.141 25.856C88.933 23.9787 90.597 21.888 92.133 19.584C92.389 19.3707 92.837 19.264 93.477 19.264C94.0743 19.264 94.6503 19.3707 95.205 19.584C95.7597 19.7547 96.1437 20.0107 96.357 20.352C95.589 22.4 95.205 24.4267 95.205 26.432C95.205 28.3093 95.4823 29.7173 96.037 30.656C95.9943 30.912 95.6957 31.4027 95.141 32.128C94.629 32.8533 94.053 33.536 93.413 34.176C92.261 33.5787 91.237 32.768 90.341 31.744C89.445 30.6773 88.7837 29.5253 88.357 28.288C86.3517 29.696 84.645 31.0827 83.237 32.448C81.829 33.7707 80.613 35.264 79.589 36.928C78.6077 38.5493 77.7543 40.4267 77.029 42.56C76.3463 44.6933 75.685 47.232 75.045 50.176C74.661 50.1333 74.1917 49.984 73.637 49.728C73.125 49.5147 72.5917 49.2373 72.037 48.896C71.525 48.5547 71.0557 48.192 70.629 47.808C70.2023 47.424 69.925 47.0613 69.797 46.72ZM120.058 21.504C119.887 24.1493 119.418 26.432 118.65 28.352C117.882 30.2293 116.772 31.8933 115.322 33.344C113.914 34.752 112.186 36.032 110.138 37.184C108.09 38.336 105.7 39.4453 102.97 40.512C102.97 40.768 102.948 41.0453 102.906 41.344C102.906 41.6 102.906 41.8773 102.906 42.176C102.906 42.7307 102.948 43.3067 103.034 43.904C103.119 44.5013 103.268 45.056 103.482 45.568C103.695 46.08 103.994 46.5067 104.378 46.848C104.762 47.1467 105.252 47.296 105.85 47.296C107.002 47.296 108.132 47.04 109.242 46.528C110.351 46.016 111.396 45.3973 112.378 44.672C113.402 43.904 114.34 43.0933 115.194 42.24C116.09 41.344 116.879 40.5333 117.562 39.808C117.988 40.192 118.351 40.5547 118.65 40.896C116.73 43.456 114.618 45.5893 112.314 47.296C110.052 48.96 107.898 50.0267 105.85 50.496C102.906 50.1547 100.602 49.088 98.9375 47.296C97.3162 45.4613 96.5055 43.264 96.5055 40.704C96.5055 38.9547 96.7402 37.184 97.2095 35.392C97.7215 33.5573 98.4042 31.808 99.2575 30.144C100.154 28.4373 101.178 26.8373 102.33 25.344C103.524 23.8507 104.783 22.5493 106.106 21.44C107.471 20.3307 108.858 19.456 110.266 18.816C111.716 18.176 113.146 17.856 114.554 17.856C116.516 18.112 118.351 19.328 120.058 21.504ZM115.642 23.616C114.49 23.7867 113.295 24.256 112.058 25.024C110.82 25.792 109.647 26.816 108.538 28.096C107.471 29.376 106.49 30.8693 105.594 32.576C104.698 34.2827 103.994 36.1173 103.482 38.08C106.895 36.3733 109.732 34.2827 111.994 31.808C114.255 29.2907 115.471 26.56 115.642 23.616ZM133.389 16.96C134.498 17.3013 135.543 18.0693 136.525 19.264C137.506 20.416 138.231 21.696 138.701 23.104C138.231 24.256 137.506 25.6427 136.525 27.264C135.543 28.8853 134.562 30.5493 133.581 32.256C132.599 33.92 131.703 35.52 130.893 37.056C130.125 38.5493 129.677 39.7867 129.549 40.768C130.231 40.0427 130.978 39.2107 131.789 38.272C132.642 37.2907 133.453 36.3307 134.221 35.392C135.031 34.4107 135.778 33.536 136.461 32.768C137.143 31.9573 137.677 31.36 138.061 30.976C138.871 30.1227 139.831 29.1413 140.941 28.032C142.05 26.88 143.202 25.8133 144.397 24.832C145.634 23.808 146.871 22.9547 148.109 22.272C149.346 21.5467 150.477 21.184 151.501 21.184C152.61 21.184 153.527 21.568 154.253 22.336C155.021 23.0613 155.618 23.8293 156.045 24.64C156.045 24.7253 155.874 24.8533 155.533 25.024C155.234 25.152 154.786 25.5573 154.189 26.24C153.591 27.008 152.909 28.0747 152.141 29.44C151.415 30.7627 150.69 32.2133 149.965 33.792C149.282 35.328 148.706 36.9067 148.237 38.528C147.767 40.1493 147.533 41.6213 147.533 42.944C147.533 44.0107 147.661 44.6933 147.917 44.992C148.215 45.2907 148.621 45.44 149.132 45.44C149.602 45.44 150.093 45.3333 150.604 45.12C151.117 44.9067 151.522 44.8 151.821 44.8C151.991 44.8853 152.119 45.0773 152.205 45.376C152.333 45.632 152.397 45.8667 152.397 46.08C152.055 46.3787 151.65 46.6773 151.181 46.976C150.711 47.2747 150.221 47.552 149.708 47.808C149.197 48.064 148.685 48.2773 148.173 48.448C147.703 48.6187 147.277 48.704 146.893 48.704C145.655 48.704 144.631 48.512 143.821 48.128C143.053 47.7867 142.434 47.3173 141.965 46.72C141.538 46.1227 141.239 45.4187 141.069 44.608C140.898 43.7547 140.813 42.8587 140.813 41.92C140.813 41.408 140.855 40.832 140.941 40.192C141.026 39.552 141.197 38.8053 141.453 37.952C141.709 37.056 142.071 36.0107 142.541 34.816C143.01 33.5787 143.607 32.1067 144.333 30.4C144.247 30.4 143.671 30.6987 142.605 31.296C141.538 31.8933 140.386 32.8107 139.149 34.048C137.143 35.968 135.33 37.8667 133.708 39.744C132.13 41.6213 130.509 43.712 128.845 46.016C127.906 47.3387 127.074 48.448 126.349 49.344C125.666 50.2827 125.069 50.9013 124.557 51.2C123.661 50.688 122.999 49.9627 122.573 49.024C122.146 48.128 121.826 47.1893 121.613 46.208C121.613 45.3973 121.719 44.3733 121.933 43.136C122.189 41.8987 122.509 40.5333 122.893 39.04C123.319 37.504 123.831 35.904 124.429 34.24C125.026 32.576 125.687 30.912 126.413 29.248C128.034 25.4933 129.506 22.5493 130.829 20.416C132.194 18.2827 133.047 17.1307 133.389 16.96ZM180.495 21.504C180.324 24.1493 179.855 26.432 179.087 28.352C178.319 30.2293 177.21 31.8933 175.759 33.344C174.351 34.752 172.623 36.032 170.575 37.184C168.527 38.336 166.138 39.4453 163.407 40.512C163.407 40.768 163.386 41.0453 163.343 41.344C163.343 41.6 163.343 41.8773 163.343 42.176C163.343 42.7307 163.386 43.3067 163.471 43.904C163.556 44.5013 163.706 45.056 163.919 45.568C164.132 46.08 164.431 46.5067 164.815 46.848C165.199 47.1467 165.69 47.296 166.287 47.296C167.439 47.296 168.57 47.04 169.679 46.528C170.788 46.016 171.834 45.3973 172.815 44.672C173.839 43.904 174.778 43.0933 175.631 42.24C176.527 41.344 177.316 40.5333 177.999 39.808C178.426 40.192 178.788 40.5547 179.087 40.896C177.167 43.456 175.055 45.5893 172.751 47.296C170.49 48.96 168.335 50.0267 166.287 50.496C163.343 50.1547 161.039 49.088 159.375 47.296C157.754 45.4613 156.943 43.264 156.943 40.704C156.943 38.9547 157.178 37.184 157.647 35.392C158.159 33.5573 158.842 31.808 159.695 30.144C160.591 28.4373 161.615 26.8373 162.767 25.344C163.962 23.8507 165.22 22.5493 166.543 21.44C167.908 20.3307 169.295 19.456 170.703 18.816C172.154 18.176 173.583 17.856 174.991 17.856C176.954 18.112 178.788 19.328 180.495 21.504ZM176.079 23.616C174.927 23.7867 173.732 24.256 172.495 25.024C171.258 25.792 170.084 26.816 168.975 28.096C167.908 29.376 166.927 30.8693 166.031 32.576C165.135 34.2827 164.431 36.1173 163.919 38.08C167.332 36.3733 170.17 34.2827 172.431 31.808C174.692 29.2907 175.908 26.56 176.079 23.616ZM219.316 52.096C218.335 52.608 217.289 52.864 216.18 52.864C214.815 52.6933 213.492 52.352 212.212 51.84C210.975 51.328 210.057 50.7093 209.46 49.984C209.119 47.8933 208.841 45.9733 208.628 44.224C208.415 42.4747 208.244 40.832 208.116 39.296C207.988 37.7173 207.903 36.224 207.86 34.816C207.817 33.3653 207.796 31.9147 207.796 30.464C207.796 28.544 207.817 26.5173 207.86 24.384C207.903 22.2507 207.945 19.9893 207.988 17.6C208.073 15.168 208.137 12.5867 208.18 9.856C208.223 7.08267 208.244 4.07467 208.244 0.831997C208.799 0.831997 209.631 1.00266 210.74 1.344C211.849 1.64266 212.937 2.00533 214.004 2.432C215.113 2.85867 216.095 3.30666 216.948 3.776C217.801 4.20266 218.271 4.56533 218.356 4.864C217.929 6.05866 217.545 7.616 217.204 9.536C216.905 11.456 216.649 13.5893 216.436 15.936C216.265 18.2827 216.137 20.7573 216.052 23.36C215.967 25.9627 215.924 28.544 215.924 31.104C215.924 33.024 215.945 34.752 215.988 36.288C216.031 37.7813 216.073 39.1467 216.116 40.384C216.201 41.5787 216.308 42.7093 216.436 43.776C216.564 44.8 216.713 45.824 216.884 46.848C218.079 43.2213 219.38 39.5947 220.788 35.968C222.239 32.3413 223.711 28.864 225.204 25.536C226.74 22.1653 228.255 19.0293 229.748 16.128C231.241 13.2267 232.649 10.7093 233.972 8.576C235.337 6.4 236.553 4.69333 237.62 3.456C238.687 2.176 239.561 1.49333 240.244 1.408C240.713 1.49333 241.204 1.68533 241.716 1.984C242.271 2.24 242.783 2.56 243.252 2.944C243.721 3.328 244.148 3.75466 244.532 4.224C244.916 4.69333 245.215 5.16266 245.428 5.632C243.849 6.18666 242.143 7.488 240.308 9.536C238.516 11.584 236.703 14.0587 234.868 16.96C233.033 19.8187 231.241 22.9547 229.492 26.368C227.785 29.7387 226.228 33.0453 224.82 36.288C223.455 39.5307 222.281 42.56 221.3 45.376C220.319 48.192 219.657 50.432 219.316 52.096ZM236.647 43.712C236.647 43.328 236.668 42.8587 236.711 42.304C236.796 41.7067 236.924 40.9387 237.095 40C237.266 39.0187 237.479 37.8453 237.735 36.48C238.034 35.1147 238.396 33.472 238.823 31.552C238.908 31.1253 239.1 30.4427 239.399 29.504C239.698 28.5653 240.082 27.584 240.551 26.56C241.063 25.4933 241.66 24.4693 242.343 23.488C243.068 22.5067 243.922 21.7813 244.903 21.312C245.628 21.4827 246.588 21.9307 247.783 22.656C248.978 23.3387 250.002 24.2987 250.855 25.536C249.874 26.6453 249.042 27.7547 248.359 28.864C247.719 29.9733 247.122 31.1253 246.567 32.32C246.055 33.5147 245.564 34.752 245.095 36.032C244.668 37.312 244.178 38.656 243.623 40.064C243.154 41.2587 242.727 42.496 242.343 43.776C241.959 45.0133 241.746 46.1013 241.703 47.04C241.703 47.808 241.682 48.3413 241.639 48.64C241.639 48.9813 241.532 49.152 241.319 49.152C241.148 49.152 240.807 49.0453 240.295 48.832C239.783 48.6187 239.25 48.2987 238.695 47.872C238.183 47.4027 237.714 46.8267 237.287 46.144C236.86 45.4613 236.647 44.6507 236.647 43.712ZM248.871 15.936C248.871 15.68 248.935 15.296 249.063 14.784C248.85 14.5707 248.658 14.2507 248.487 13.824C248.359 13.3973 248.295 13.0133 248.295 12.672C248.295 12.288 248.338 11.776 248.423 11.136C248.551 10.4533 248.7 9.728 248.871 8.96C249.042 8.192 249.255 7.40267 249.511 6.592C249.767 5.73866 250.023 4.97066 250.279 4.288C250.791 4.288 251.41 4.43733 252.135 4.736C252.903 4.992 253.671 5.35467 254.439 5.824C255.207 6.25066 255.911 6.74133 256.551 7.296C257.191 7.808 257.682 8.29867 258.023 8.768C257.554 9.23733 256.935 9.89866 256.167 10.752C255.399 11.5627 254.652 12.4373 253.927 13.376C253.202 14.272 252.54 15.1253 251.943 15.936C251.346 16.7467 250.962 17.3227 250.791 17.664C250.279 17.5787 249.831 17.3653 249.447 17.024C249.063 16.64 248.871 16.2773 248.871 15.936ZM274.62 21.504C274.449 24.1493 273.98 26.432 273.212 28.352C272.444 30.2293 271.335 31.8933 269.884 33.344C268.476 34.752 266.748 36.032 264.7 37.184C262.652 38.336 260.263 39.4453 257.532 40.512C257.532 40.768 257.511 41.0453 257.468 41.344C257.468 41.6 257.468 41.8773 257.468 42.176C257.468 42.7307 257.511 43.3067 257.596 43.904C257.681 44.5013 257.831 45.056 258.044 45.568C258.257 46.08 258.556 46.5067 258.94 46.848C259.324 47.1467 259.815 47.296 260.412 47.296C261.564 47.296 262.695 47.04 263.804 46.528C264.913 46.016 265.959 45.3973 266.94 44.672C267.964 43.904 268.903 43.0933 269.756 42.24C270.652 41.344 271.441 40.5333 272.124 39.808C272.551 40.192 272.913 40.5547 273.212 40.896C271.292 43.456 269.18 45.5893 266.876 47.296C264.615 48.96 262.46 50.0267 260.412 50.496C257.468 50.1547 255.164 49.088 253.5 47.296C251.879 45.4613 251.068 43.264 251.068 40.704C251.068 38.9547 251.303 37.184 251.772 35.392C252.284 33.5573 252.967 31.808 253.82 30.144C254.716 28.4373 255.74 26.8373 256.892 25.344C258.087 23.8507 259.345 22.5493 260.668 21.44C262.033 20.3307 263.42 19.456 264.828 18.816C266.279 18.176 267.708 17.856 269.116 17.856C271.079 18.112 272.913 19.328 274.62 21.504ZM270.204 23.616C269.052 23.7867 267.857 24.256 266.62 25.024C265.383 25.792 264.209 26.816 263.1 28.096C262.033 29.376 261.052 30.8693 260.156 32.576C259.26 34.2827 258.556 36.1173 258.044 38.08C261.457 36.3733 264.295 34.2827 266.556 31.808C268.817 29.2907 270.033 26.56 270.204 23.616ZM278.159 45.376C278.159 44.5227 278.244 43.328 278.415 41.792C278.628 40.256 278.884 38.592 279.183 36.8C279.524 35.008 279.887 33.1733 280.271 31.296C280.698 29.4187 281.124 27.7333 281.551 26.24C282.106 24.2347 282.959 22.6987 284.111 21.632C285.306 20.5227 286.778 19.968 288.527 19.968C289.466 19.968 290.383 20.1173 291.279 20.416C292.218 20.7147 292.772 21.0987 292.943 21.568C291.706 22.592 290.703 23.872 289.935 25.408C289.21 26.9013 288.612 28.5227 288.143 30.272C287.716 31.9787 287.375 33.7493 287.119 35.584C286.906 37.376 286.671 39.0613 286.415 40.64C287.823 38.7627 289.146 37.0773 290.383 35.584C291.663 34.048 292.794 32.832 293.775 31.936C295.098 30.6987 295.994 29.6747 296.463 28.864C296.932 28.0107 297.338 27.0933 297.679 26.112C297.935 25.344 298.234 24.448 298.575 23.424C298.959 22.4 299.578 21.4613 300.431 20.608C300.602 20.5653 300.964 20.544 301.519 20.544C301.946 20.544 302.394 20.5653 302.863 20.608C303.375 20.6507 303.844 20.736 304.271 20.864C304.698 20.992 305.06 21.1413 305.359 21.312C305.658 21.4827 305.828 21.696 305.871 21.952C305.188 22.848 304.548 24.256 303.951 26.176C303.354 28.0533 302.82 30.1227 302.351 32.384C301.882 34.6453 301.455 36.9067 301.071 39.168C300.687 41.3867 300.346 43.264 300.047 44.8C300.218 44.7147 300.602 44.3733 301.199 43.776C301.796 43.1787 302.458 42.432 303.183 41.536C303.951 40.64 304.74 39.6587 305.551 38.592C306.404 37.5253 307.151 36.48 307.791 35.456C308.602 34.2187 309.263 33.0667 309.775 32C310.33 30.8907 310.799 29.7173 311.183 28.48C311.61 27.2427 311.994 25.8773 312.335 24.384C312.676 22.848 313.039 21.0347 313.423 18.944C313.679 18.6027 314.234 18.3253 315.087 18.112C315.983 17.856 316.794 17.728 317.519 17.728C318.159 17.728 318.628 17.8347 318.927 18.048C318.714 20.4373 318.308 22.5707 317.711 24.448C317.156 26.3253 316.388 28.16 315.407 29.952C314.426 31.7013 313.21 33.472 311.759 35.264C310.308 37.0133 308.602 38.9333 306.639 41.024C305.828 41.8773 304.932 42.816 303.951 43.84C303.012 44.864 302.074 45.824 301.135 46.72C300.239 47.5733 299.386 48.2987 298.575 48.896C297.807 49.4933 297.21 49.792 296.783 49.792C295.802 49.792 294.991 49.408 294.351 48.64C293.711 47.872 293.391 46.8907 293.391 45.696C293.391 44.4587 293.434 43.392 293.519 42.496C293.647 41.5573 293.839 40.576 294.095 39.552C294.351 38.6133 294.543 37.824 294.671 37.184C294.842 36.544 294.97 35.9893 295.055 35.52C295.183 35.0507 295.268 34.6453 295.311 34.304C295.354 33.9627 295.396 33.6213 295.439 33.28C295.098 33.4507 294.65 33.8133 294.095 34.368C293.54 34.88 292.964 35.4987 292.367 36.224C291.77 36.9067 291.172 37.6107 290.575 38.336C289.978 39.0613 289.487 39.68 289.103 40.192C288.292 41.3013 287.588 42.2827 286.991 43.136C286.394 43.9893 285.818 44.8 285.263 45.568C284.751 46.336 284.239 47.1253 283.727 47.936C283.215 48.704 282.618 49.536 281.935 50.432C280.57 50.0053 279.588 49.3653 278.991 48.512C278.436 47.6587 278.159 46.6133 278.159 45.376ZM339.851 22.528C339.808 23.3387 339.659 24.192 339.403 25.088C339.189 25.9413 338.912 26.7307 338.571 27.456C338.229 28.1387 337.867 28.7147 337.483 29.184C337.099 29.6533 336.736 29.888 336.395 29.888C335.925 29.8453 335.648 29.5253 335.563 28.928C335.563 28.8 335.605 28.608 335.691 28.352C335.819 28.0533 335.947 27.7333 336.075 27.392C336.203 27.0507 336.309 26.7093 336.395 26.368C336.523 26.0267 336.587 25.728 336.587 25.472C336.587 24.8747 336.437 24.384 336.139 24C335.883 23.5733 335.52 23.36 335.051 23.36C333.344 23.36 332.043 24.4267 331.147 26.56C330.251 28.6933 329.803 31.8293 329.803 35.968C329.803 36.3947 329.824 36.6507 329.867 36.736C330.763 36.6933 331.552 36.672 332.235 36.672C332.96 36.6293 333.664 36.608 334.347 36.608C334.389 36.6933 334.411 36.864 334.411 37.12C334.411 37.504 334.325 37.7813 334.155 37.952C333.173 38.1653 332.384 38.3573 331.787 38.528C331.232 38.656 330.805 38.784 330.507 38.912C330.208 39.04 330.016 39.1893 329.931 39.36C329.888 39.488 329.867 39.68 329.867 39.936C329.867 40.2773 329.867 40.6187 329.867 40.96C329.909 41.3013 329.931 41.728 329.931 42.24C329.931 45.824 328.949 48.704 326.987 50.88C325.067 53.056 322.379 54.3147 318.923 54.656C318.325 54.6133 317.707 54.4427 317.067 54.144C316.427 53.8453 315.808 53.4613 315.211 52.992C314.656 52.5227 314.165 51.9893 313.739 51.392C313.312 50.8373 313.013 50.2613 312.843 49.664C312.843 48.0427 313.184 46.5067 313.867 45.056C314.549 43.5627 315.467 42.2613 316.619 41.152C317.813 40 319.2 39.0827 320.779 38.4C322.4 37.6747 324.149 37.248 326.027 37.12C326.027 36.0533 325.92 35.008 325.707 33.984C325.493 32.96 325.259 31.9787 325.003 31.04C324.789 30.0587 324.576 29.12 324.363 28.224C324.149 27.2853 324.043 26.368 324.043 25.472C324.043 24.32 324.277 23.1893 324.747 22.08C325.216 20.928 325.835 19.8827 326.603 18.944C327.371 17.9627 328.267 17.1307 329.291 16.448C330.315 15.7653 331.381 15.296 332.491 15.04C332.96 15.168 333.579 15.552 334.347 16.192C335.157 16.7893 335.947 17.472 336.715 18.24C337.483 19.008 338.165 19.7973 338.763 20.608C339.36 21.376 339.723 22.016 339.851 22.528ZM318.731 51.712C319.755 51.2853 320.715 50.6667 321.611 49.856C322.549 49.0453 323.36 48.128 324.043 47.104C324.725 46.08 325.259 44.992 325.643 43.84C326.069 42.688 326.283 41.5573 326.283 40.448C325.429 40.576 324.491 40.9813 323.467 41.664C322.443 42.304 321.483 43.0933 320.587 44.032C319.691 44.928 318.944 45.8667 318.347 46.848C317.749 47.8293 317.451 48.6827 317.451 49.408C317.451 50.3467 317.877 51.1147 318.731 51.712Z" fill="white"/>
</svg>
